<?xml version="1.0" encoding="UTF-8" standalone="no"?>
<!DOCTYPE svg PUBLIC "-//W3C//DTD SVG 1.1//EN"
 "http://www.w3.org/Graphics/SVG/1.1/DTD/svg11.dtd">
<!-- Generated by graphviz version 12.1.0 (20240811.2233)
 -->
<!-- Pages: 1 -->
<svg width="375pt" height="1082pt"
 viewBox="0.00 0.00 374.95 1081.50" xmlns="http://www.w3.org/2000/svg" xmlns:xlink="http://www.w3.org/1999/xlink">
<g id="graph0" class="graph" transform="scale(1 1) rotate(0) translate(4 1077.5)">
<polygon fill="white" stroke="none" points="-4,4 -4,-1077.5 370.95,-1077.5 370.95,4 -4,4"/>
<!-- add1 -->
<g id="node1" class="node">
<title>add1</title>
<ellipse fill="none" stroke="black" cx="238.88" cy="-1055.5" rx="28.83" ry="18"/>
<text text-anchor="middle" x="238.88" y="-1050.45" font-family="Times,serif" font-size="14.00">add1</text>
</g>
<!-- BUFI1 -->
<g id="node2" class="node">
<title>BUFI1</title>
<polygon fill="none" stroke="black" points="238.88,-1000.5 184.88,-1000.5 184.88,-964.5 238.88,-964.5 238.88,-1000.5"/>
<text text-anchor="middle" x="211.88" y="-977.45" font-family="Times,serif" font-size="14.00">BUFI1</text>
</g>
<!-- add1&#45;&gt;BUFI1 -->
<g id="edge1" class="edge">
<title>add1&#45;&gt;BUFI1</title>
<path fill="none" stroke="black" d="M232.48,-1037.67C229.52,-1029.89 225.92,-1020.43 222.56,-1011.61"/>
<polygon fill="black" stroke="black" points="225.87,-1010.46 219.05,-1002.36 219.33,-1012.95 225.87,-1010.46"/>
</g>
<!-- BUFI2 -->
<g id="node3" class="node">
<title>BUFI2</title>
<polygon fill="none" stroke="black" points="232.88,-927.5 178.88,-927.5 178.88,-891.5 232.88,-891.5 232.88,-927.5"/>
<text text-anchor="middle" x="205.88" y="-904.45" font-family="Times,serif" font-size="14.00">BUFI2</text>
</g>
<!-- BUFI1&#45;&gt;BUFI2 -->
<g id="edge2" class="edge">
<title>BUFI1&#45;&gt;BUFI2</title>
<path fill="none" stroke="black" d="M210.42,-964.31C209.77,-956.64 208.99,-947.39 208.26,-938.74"/>
<polygon fill="black" stroke="black" points="211.77,-938.71 207.44,-929.04 204.8,-939.3 211.77,-938.71"/>
</g>
<!-- BUFI3_valid_0 -->
<g id="node4" class="node">
<title>BUFI3_valid_0</title>
<polygon fill="none" stroke="black" points="239.25,-854.5 138.5,-854.5 138.5,-818.5 239.25,-818.5 239.25,-854.5"/>
<text text-anchor="middle" x="188.88" y="-831.45" font-family="Times,serif" font-size="14.00">BUFI3_valid_0</text>
</g>
<!-- BUFI2&#45;&gt;BUFI3_valid_0 -->
<g id="edge3" class="edge">
<title>BUFI2&#45;&gt;BUFI3_valid_0</title>
<path fill="none" stroke="black" d="M201.76,-891.31C199.9,-883.55 197.66,-874.18 195.57,-865.45"/>
<polygon fill="black" stroke="black" points="199.04,-864.91 193.3,-856 192.23,-866.54 199.04,-864.91"/>
</g>
<!-- FORK -->
<g id="node5" class="node">
<title>FORK</title>
<ellipse fill="none" stroke="black" cx="227.88" cy="-763.5" rx="35.49" ry="18"/>
<text text-anchor="middle" x="227.88" y="-758.45" font-family="Times,serif" font-size="14.00">FORK</text>
</g>
<!-- BUFI3_valid_0&#45;&gt;FORK -->
<g id="edge4" class="edge">
<title>BUFI3_valid_0&#45;&gt;FORK</title>
<path fill="none" stroke="black" d="M198.32,-818.31C202.84,-810.08 208.35,-800.04 213.39,-790.88"/>
<polygon fill="black" stroke="black" points="216.31,-792.82 218.06,-782.37 210.18,-789.45 216.31,-792.82"/>
</g>
<!-- FORK&#45;&gt;add1 -->
<g id="edge5" class="edge">
<title>FORK&#45;&gt;add1</title>
<path fill="none" stroke="black" d="M242.62,-780.36C253.66,-793.93 266.88,-814.55 266.88,-835.5 266.88,-983.5 266.88,-983.5 266.88,-983.5 266.88,-999.03 261.01,-1015.22 254.64,-1028.21"/>
<polygon fill="black" stroke="black" points="251.6,-1026.47 250.01,-1036.95 257.79,-1029.75 251.6,-1026.47"/>
</g>
<!-- JOIN -->
<g id="node6" class="node">
<title>JOIN</title>
<ellipse fill="none" stroke="black" cx="227.88" cy="-675" rx="30.88" ry="18"/>
<text text-anchor="middle" x="227.88" y="-669.95" font-family="Times,serif" font-size="14.00">JOIN</text>
</g>
<!-- FORK&#45;&gt;JOIN -->
<g id="edge6" class="edge">
<title>FORK&#45;&gt;JOIN</title>
<path fill="none" stroke="black" d="M227.88,-745.41C227.88,-733.76 227.88,-718.05 227.88,-704.52"/>
<polygon fill="black" stroke="black" points="231.38,-704.86 227.88,-694.86 224.38,-704.86 231.38,-704.86"/>
<text text-anchor="middle" x="268.38" y="-714.2" font-family="Times,serif" font-size="14.00">replicate thrice</text>
</g>
<!-- MERGE -->
<g id="node8" class="node">
<title>MERGE</title>
<ellipse fill="none" stroke="black" cx="116.88" cy="-602" rx="43.67" ry="18"/>
<text text-anchor="middle" x="116.88" y="-596.95" font-family="Times,serif" font-size="14.00">MERGE</text>
</g>
<!-- JOIN&#45;&gt;MERGE -->
<g id="edge8" class="edge">
<title>JOIN&#45;&gt;MERGE</title>
<path fill="none" stroke="black" d="M207.52,-660.98C191.28,-650.59 168.23,-635.85 149.44,-623.83"/>
<polygon fill="black" stroke="black" points="151.37,-620.91 141.06,-618.47 147.6,-626.81 151.37,-620.91"/>
</g>
<!-- BUF11_valid -->
<g id="node7" class="node">
<title>BUF11_valid</title>
<ellipse fill="none" stroke="black" cx="305.88" cy="-164" rx="61.08" ry="18"/>
<text text-anchor="middle" x="305.88" y="-158.95" font-family="Times,serif" font-size="14.00">BUF11_valid</text>
</g>
<!-- BUF11_valid&#45;&gt;JOIN -->
<g id="edge7" class="edge">
<title>BUF11_valid&#45;&gt;JOIN</title>
<path fill="none" stroke="black" d="M314.83,-182.29C321.29,-196.37 328.88,-216.95 328.88,-236 328.88,-603 328.88,-603 328.88,-603 328.88,-634.74 295.08,-653.52 266.59,-663.71"/>
<polygon fill="black" stroke="black" points="265.84,-660.27 257.45,-666.73 268.04,-666.91 265.84,-660.27"/>
</g>
<!-- BUF2 -->
<g id="node10" class="node">
<title>BUF2</title>
<polygon fill="none" stroke="black" points="143.88,-547 89.88,-547 89.88,-511 143.88,-511 143.88,-547"/>
<text text-anchor="middle" x="116.88" y="-523.95" font-family="Times,serif" font-size="14.00">BUF2</text>
</g>
<!-- MERGE&#45;&gt;BUF2 -->
<g id="edge10" class="edge">
<title>MERGE&#45;&gt;BUF2</title>
<path fill="none" stroke="black" d="M116.88,-583.81C116.88,-576.23 116.88,-567.1 116.88,-558.54"/>
<polygon fill="black" stroke="black" points="120.38,-558.54 116.88,-548.54 113.38,-558.54 120.38,-558.54"/>
</g>
<!-- BUF55 -->
<g id="node9" class="node">
<title>BUF55</title>
<polygon fill="none" stroke="black" points="55.75,-36 0,-36 0,0 55.75,0 55.75,-36"/>
<text text-anchor="middle" x="27.88" y="-12.95" font-family="Times,serif" font-size="14.00">BUF55</text>
</g>
<!-- BUF55&#45;&gt;MERGE -->
<g id="edge9" class="edge">
<title>BUF55&#45;&gt;MERGE</title>
<path fill="none" stroke="black" d="M23.27,-36.37C19.89,-50.66 15.88,-71.5 15.88,-90 15.88,-530 15.88,-530 15.88,-530 15.88,-558.73 43.56,-576.84 69.94,-587.57"/>
<polygon fill="black" stroke="black" points="68.69,-590.84 79.28,-591.07 71.14,-584.28 68.69,-590.84"/>
</g>
<!-- loop_cond -->
<g id="node11" class="node">
<title>loop_cond</title>
<ellipse fill="none" stroke="black" cx="116.88" cy="-456" rx="49.82" ry="18"/>
<text text-anchor="middle" x="116.88" y="-450.95" font-family="Times,serif" font-size="14.00">(x != 0, x)</text>
</g>
<!-- BUF2&#45;&gt;loop_cond -->
<g id="edge11" class="edge">
<title>BUF2&#45;&gt;loop_cond</title>
<path fill="none" stroke="black" d="M116.88,-510.81C116.88,-503.23 116.88,-494.1 116.88,-485.54"/>
<polygon fill="black" stroke="black" points="120.38,-485.54 116.88,-475.54 113.38,-485.54 120.38,-485.54"/>
</g>
<!-- BDEMUX -->
<g id="node12" class="node">
<title>BDEMUX</title>
<ellipse fill="none" stroke="black" cx="116.88" cy="-383" rx="51.35" ry="18"/>
<text text-anchor="middle" x="116.88" y="-377.95" font-family="Times,serif" font-size="14.00">BDEMUX</text>
</g>
<!-- loop_cond&#45;&gt;BDEMUX -->
<g id="edge12" class="edge">
<title>loop_cond&#45;&gt;BDEMUX</title>
<path fill="none" stroke="black" d="M116.88,-437.81C116.88,-430.23 116.88,-421.1 116.88,-412.54"/>
<polygon fill="black" stroke="black" points="120.38,-412.54 116.88,-402.54 113.38,-412.54 120.38,-412.54"/>
</g>
<!-- BUF5 -->
<g id="node13" class="node">
<title>BUF5</title>
<polygon fill="none" stroke="black" points="119.88,-328 65.88,-328 65.88,-292 119.88,-292 119.88,-328"/>
<text text-anchor="middle" x="92.88" y="-304.95" font-family="Times,serif" font-size="14.00">BUF5</text>
</g>
<!-- BDEMUX&#45;&gt;BUF5 -->
<g id="edge13" class="edge">
<title>BDEMUX&#45;&gt;BUF5</title>
<path fill="none" stroke="black" d="M111.07,-364.81C108.41,-356.96 105.2,-347.47 102.22,-338.66"/>
<polygon fill="black" stroke="black" points="105.63,-337.82 99.12,-329.46 99,-340.06 105.63,-337.82"/>
</g>
<!-- FORK9 -->
<g id="node14" class="node">
<title>FORK9</title>
<ellipse fill="none" stroke="black" cx="179.88" cy="-310" rx="40.09" ry="18"/>
<text text-anchor="middle" x="179.88" y="-304.95" font-family="Times,serif" font-size="14.00">FORK9</text>
</g>
<!-- BDEMUX&#45;&gt;FORK9 -->
<g id="edge14" class="edge">
<title>BDEMUX&#45;&gt;FORK9</title>
<path fill="none" stroke="black" d="M131.49,-365.53C139.47,-356.53 149.51,-345.22 158.37,-335.23"/>
<polygon fill="black" stroke="black" points="160.75,-337.82 164.77,-328.02 155.52,-333.18 160.75,-337.82"/>
</g>
<!-- mulstep6 -->
<g id="node15" class="node">
<title>mulstep6</title>
<ellipse fill="none" stroke="black" cx="89.88" cy="-237" rx="45.21" ry="18"/>
<text text-anchor="middle" x="89.88" y="-231.95" font-family="Times,serif" font-size="14.00">mulstep6</text>
</g>
<!-- BUF5&#45;&gt;mulstep6 -->
<g id="edge15" class="edge">
<title>BUF5&#45;&gt;mulstep6</title>
<path fill="none" stroke="black" d="M92.15,-291.81C91.82,-284.14 91.43,-274.89 91.07,-266.24"/>
<polygon fill="black" stroke="black" points="94.58,-266.38 90.66,-256.54 87.58,-266.68 94.58,-266.38"/>
</g>
<!-- BUF10 -->
<g id="node18" class="node">
<title>BUF10</title>
<ellipse fill="none" stroke="black" cx="262.88" cy="-237" rx="38.04" ry="18"/>
<text text-anchor="middle" x="262.88" y="-231.95" font-family="Times,serif" font-size="14.00">BUF10</text>
</g>
<!-- FORK9&#45;&gt;BUF10 -->
<g id="edge19" class="edge">
<title>FORK9&#45;&gt;BUF10</title>
<path fill="none" stroke="black" d="M197.88,-293.59C209.16,-283.95 223.9,-271.34 236.48,-260.58"/>
<polygon fill="black" stroke="black" points="238.71,-263.28 244.04,-254.12 234.16,-257.96 238.71,-263.28"/>
</g>
<!-- out -->
<g id="node19" class="node">
<title>out</title>
<ellipse fill="none" stroke="black" cx="179.88" cy="-237" rx="27" ry="18"/>
<text text-anchor="middle" x="179.88" y="-231.95" font-family="Times,serif" font-size="14.00">out</text>
</g>
<!-- FORK9&#45;&gt;out -->
<g id="edge21" class="edge">
<title>FORK9&#45;&gt;out</title>
<path fill="none" stroke="black" d="M179.88,-291.81C179.88,-284.23 179.88,-275.1 179.88,-266.54"/>
<polygon fill="black" stroke="black" points="183.38,-266.54 179.88,-256.54 176.38,-266.54 183.38,-266.54"/>
</g>
<!-- BUF7 -->
<g id="node16" class="node">
<title>BUF7</title>
<polygon fill="none" stroke="black" points="119.88,-182 65.88,-182 65.88,-146 119.88,-146 119.88,-182"/>
<text text-anchor="middle" x="92.88" y="-158.95" font-family="Times,serif" font-size="14.00">BUF7</text>
</g>
<!-- mulstep6&#45;&gt;BUF7 -->
<g id="edge16" class="edge">
<title>mulstep6&#45;&gt;BUF7</title>
<path fill="none" stroke="black" d="M90.6,-218.81C90.93,-211.14 91.32,-201.89 91.68,-193.24"/>
<polygon fill="black" stroke="black" points="95.17,-193.68 92.09,-183.54 88.17,-193.38 95.17,-193.68"/>
</g>
<!-- mulstep54 -->
<g id="node17" class="node">
<title>mulstep54</title>
<ellipse fill="none" stroke="black" cx="93.88" cy="-91" rx="49.82" ry="18"/>
<text text-anchor="middle" x="93.88" y="-85.95" font-family="Times,serif" font-size="14.00">mulstep54</text>
</g>
<!-- BUF7&#45;&gt;mulstep54 -->
<g id="edge17" class="edge">
<title>BUF7&#45;&gt;mulstep54</title>
<path fill="none" stroke="black" d="M93.12,-145.81C93.22,-138.23 93.35,-129.1 93.47,-120.54"/>
<polygon fill="black" stroke="black" points="96.97,-120.59 93.61,-110.54 89.97,-120.49 96.97,-120.59"/>
</g>
<!-- mulstep54&#45;&gt;BUF55 -->
<g id="edge18" class="edge">
<title>mulstep54&#45;&gt;BUF55</title>
<path fill="none" stroke="black" d="M78.57,-73.53C70.64,-65 60.77,-54.39 51.86,-44.8"/>
<polygon fill="black" stroke="black" points="54.42,-42.42 45.05,-37.48 49.3,-47.18 54.42,-42.42"/>
</g>
<!-- BUF10&#45;&gt;BUF11_valid -->
<g id="edge20" class="edge">
<title>BUF10&#45;&gt;BUF11_valid</title>
<path fill="none" stroke="black" d="M273.07,-219.17C277.97,-211.07 283.98,-201.15 289.51,-192.03"/>
<polygon fill="black" stroke="black" points="292.49,-193.86 294.67,-183.49 286.5,-190.23 292.49,-193.86"/>
</g>
</g>
</svg>
